# xmcd
#
# Track frame offsets: 
#        150
#        9833
#        19715
#        30401
#        41858
#        51261
#        60554
#        68925
#        78167
#        87526
#        96555
#        105008
#        114160
#        123917
#        136902
#        149084
#        157306
#        165068
#        174963
#        186274
#        196759
#        206279
#        218393
#        230503
#        240700
#        249381
#        258340
#        270820
#
# Disc length: 3745 seconds
#
# Revision: 0
# Processed by: cddbd v1.4PL0 Copyright (c) Steve Scherf et al.
# Submitted via: ExactAudioCopy v0.90b2
#
DISCID=680e9f1c
DTITLE=Various Artist - Texas Rockabilly
DYEAR=1999
DGENRE=Rockabilly
TTITLE0=The Moods - Let Me Have Your Love
TTITLE1=Jeff Stone - Everybody Rock
TTITLE2=Al Urban - Gonna Be Better Times
TTITLE3=Cecil Moore - Walkin' Fever
TTITLE4=Jimmy Payne and The Midnighters - I Get the Blues
TTITLE5=The Medalions - Home Town
TTITLE6=Al Urban - Lookin' for Money
TTITLE7=Cecil Moore and Ray's Trio - My Money's Gone
TTITLE8=Al Urban - Won't Tell You Her Name
TTITLE9=Dick Fagin - I Got a Ticket
TTITLE10=Glenn Bland and The Rhythm Kings - When My Baby Passes By
TTITLE11=The Midnighters - Rockin' Romance
TTITLE12=The Downbeats - Come on Over
TTITLE13=Eddie Dugosh and the Ah-Ha Playboys - Strange Kinda Feeling
TTITLE14=Jimmy Farmer and The Notes from the Underground - Long Black 
TTITLE14=Train
TTITLE15=Dick Fagin - I Gotta Learn
TTITLE16=Cecil Moore and The Notes from the Underground - Diamond Back
TTITLE17=Cecil Moore and The Kings of Rhythm - Moonshine
TTITLE18=Cecil Moore - I Lost My Little Baby
TTITLE19=Chester McIntyre - I'm Gonna Rock with My Baby Tonight
TTITLE20=Linda Davis - Cockroach
TTITLE21=Bash Hoffner and The Pearl Ramblers - Rockin' and A-Bopin'
TTITLE22=Glen Bland and The Rhythm Kings - Mean Gene
TTITLE23=Harmon Boazeman - No Love in You
TTITLE24=Cecil Moore and The Diamond Backs - Stormy
TTITLE25=The Downbeats - Oh Please
TTITLE26=The Moods - Little Alice
TTITLE27=The Midnighters - Yes Baby, I'm Scared
EXTD=
EXTT0=
EXTT1=
EXTT2=
EXTT3=
EXTT4=
EXTT5=
EXTT6=
EXTT7=
EXTT8=
EXTT9=
EXTT10=
EXTT11=
EXTT12=
EXTT13=
EXTT14=
EXTT15=
EXTT16=
EXTT17=
EXTT18=
EXTT19=
EXTT20=
EXTT21=
EXTT22=
EXTT23=
EXTT24=
EXTT25=
EXTT26=
EXTT27=
PLAYORDER=
